<svg xmlns="http://www.w3.org/2000/svg" viewBox="0 0 720 380" font-family="-apple-system,Segoe UI,Roboto,Helvetica,Arial,sans-serif" role="img" aria-label="Atomic error rate per model, bare condition, with 95% confidence intervals.">
<rect x="0.5" y="0.5" width="719" height="379" rx="16" fill="#ffffff" stroke="#e7e5e4"/>
<text x="36" y="42" font-size="21" font-weight="700" fill="#292524">Atomic error rate — bare (lower is better)</text>
<text x="36" y="66" font-size="13" fill="#78716c">% of scorable units wrong · 95% bootstrap CI · n per bar shown · replay pilot</text><line x1="70" y1="320" x2="690" y2="320" stroke="#ece9e6"/><text x="62" y="324" font-size="12" fill="#a8a29e" text-anchor="end">0</text><line x1="70" y1="264" x2="690" y2="264" stroke="#ece9e6"/><text x="62" y="268" font-size="12" fill="#a8a29e" text-anchor="end">6</text><line x1="70" y1="208" x2="690" y2="208" stroke="#ece9e6"/><text x="62" y="212" font-size="12" fill="#a8a29e" text-anchor="end">11</text><line x1="70" y1="151.99999999999997" x2="690" y2="151.99999999999997" stroke="#ece9e6"/><text x="62" y="155.99999999999997" font-size="12" fill="#a8a29e" text-anchor="end">17</text><line x1="70" y1="96" x2="690" y2="96" stroke="#ece9e6"/><text x="62" y="100" font-size="12" fill="#a8a29e" text-anchor="end">22</text><rect x="138.33333333333331" y="170.90713902308107" width="70" height="149.09286097691893" rx="4" fill="#E8833B"/><line x1="173.33333333333331" y1="208.1803542673108" x2="173.33333333333331" y2="133.6339237788513" stroke="#7c2d12" stroke-width="2"/><line x1="165.33333333333331" y1="208.1803542673108" x2="181.33333333333331" y2="208.1803542673108" stroke="#7c2d12" stroke-width="2"/><line x1="165.33333333333331" y1="133.6339237788513" x2="181.33333333333331" y2="133.6339237788513" stroke="#7c2d12" stroke-width="2"/><text x="173.33333333333331" y="162.90713902308107" font-size="14" font-weight="700" fill="#9a5518" text-anchor="middle">14.8%</text><text x="173.33333333333331" y="340" font-size="13" fill="#44403c" text-anchor="middle">haiku</text><text x="173.33333333333331" y="358" font-size="11" fill="#a8a29e" text-anchor="middle">n=2</text><rect x="345" y="194.68487978233105" width="70" height="125.31512021766895" rx="4" fill="#E8833B"/><line x1="380" y1="208.1803542673108" x2="380" y2="181.18940529735136" stroke="#7c2d12" stroke-width="2"/><line x1="372" y1="208.1803542673108" x2="388" y2="208.1803542673108" stroke="#7c2d12" stroke-width="2"/><line x1="372" y1="181.18940529735136" x2="388" y2="181.18940529735136" stroke="#7c2d12" stroke-width="2"/><text x="380" y="186.68487978233105" font-size="14" font-weight="700" fill="#9a5518" text-anchor="middle">12.5%</text><text x="380" y="340" font-size="13" fill="#44403c" text-anchor="middle">opus</text><text x="380" y="358" font-size="11" fill="#a8a29e" text-anchor="middle">n=2</text><rect x="551.6666666666667" y="222.6086956521739" width="70" height="97.3913043478261" rx="4" fill="#E8833B"/><line x1="586.6666666666667" y1="320" x2="586.6666666666667" y2="125.21739130434781" stroke="#7c2d12" stroke-width="2"/><line x1="578.6666666666667" y1="320" x2="594.6666666666667" y2="320" stroke="#7c2d12" stroke-width="2"/><line x1="578.6666666666667" y1="125.21739130434781" x2="594.6666666666667" y2="125.21739130434781" stroke="#7c2d12" stroke-width="2"/><text x="586.6666666666667" y="214.6086956521739" font-size="14" font-weight="700" fill="#9a5518" text-anchor="middle">9.7%</text><text x="586.6666666666667" y="340" font-size="13" fill="#44403c" text-anchor="middle">sonnet</text><text x="586.6666666666667" y="358" font-size="11" fill="#a8a29e" text-anchor="middle">n=2</text><text x="36" y="368" font-size="11.5" fill="#a8a29e">Deterministic scorer; grounded conditions score 0 by construction and are shown in the report, not here.</text></svg>
