<svg xmlns="http://www.w3.org/2000/svg" viewBox="0 0 760 400" font-family="-apple-system,Segoe UI,Roboto,Helvetica,Arial,sans-serif" role="img" aria-label="Atomic error rate per model and condition, with 95% confidence intervals.">
<rect x="0.5" y="0.5" width="759" height="399" rx="16" fill="#ffffff" stroke="#e7e5e4"/>
<text x="34" y="40" font-size="21" font-weight="700" fill="#292524">D&amp;D 2024 build errors — with vs without the skill</text>
<text x="34" y="64" font-size="13" fill="#78716c">Atomic error rate (% of verifiable units wrong, lower is better) · 95% bootstrap CI · replay · real models</text><rect x="34" y="78" width="12" height="12" rx="3" fill="#E8833B"/><text x="51" y="88" font-size="12" fill="#57534e">bare</text><rect x="92.8" y="78" width="12" height="12" rx="3" fill="#2F6FB0"/><text x="109.8" y="88" font-size="12" fill="#57534e">skill-engine</text><line x1="66" y1="320" x2="724" y2="320" stroke="#ece9e6"/><text x="58" y="324" font-size="12" fill="#a8a29e" text-anchor="end">0%</text><line x1="66" y1="266" x2="724" y2="266" stroke="#ece9e6"/><text x="58" y="270" font-size="12" fill="#a8a29e" text-anchor="end">9%</text><line x1="66" y1="212" x2="724" y2="212" stroke="#ece9e6"/><text x="58" y="216" font-size="12" fill="#a8a29e" text-anchor="end">17%</text><line x1="66" y1="158" x2="724" y2="158" stroke="#ece9e6"/><text x="58" y="162" font-size="12" fill="#a8a29e" text-anchor="end">26%</text><line x1="66" y1="104" x2="724" y2="104" stroke="#ece9e6"/><text x="58" y="108" font-size="12" fill="#a8a29e" text-anchor="end">34%</text><rect x="111.66666666666669" y="188.1662910194614" width="60" height="131.8337089805386" rx="4" fill="#E8833B"/><line x1="141.66666666666669" y1="244.1586689954445" x2="141.66666666666669" y2="132.17391304347828" stroke="#44403c" stroke-width="1.5"/><line x1="135.66666666666669" y1="132.17391304347828" x2="147.66666666666669" y2="132.17391304347828" stroke="#44403c" stroke-width="1.5"/><text x="141.66666666666669" y="181.1662910194614" font-size="12.5" font-weight="700" fill="#44403c" text-anchor="middle">21.0%</text><rect x="179.66666666666669" y="316.08427910574306" width="60" height="3.9157208942569355" rx="4" fill="#2F6FB0"/><line x1="209.66666666666669" y1="320" x2="209.66666666666669" y2="308.2528373172292" stroke="#44403c" stroke-width="1.5"/><line x1="203.66666666666669" y1="308.2528373172292" x2="215.66666666666669" y2="308.2528373172292" stroke="#44403c" stroke-width="1.5"/><text x="209.66666666666669" y="309.08427910574306" font-size="12.5" font-weight="700" fill="#44403c" text-anchor="middle">0.6%</text><text x="175.66666666666669" y="342" font-size="14" fill="#292524" text-anchor="middle">haiku</text><text x="175.66666666666669" y="360" font-size="11" fill="#a8a29e" text-anchor="middle">n=5/condition</text><rect x="331.00000000000006" y="224.03062051296564" width="60" height="95.96937948703436" rx="4" fill="#E8833B"/><line x1="361.00000000000006" y1="248.60760835734044" x2="361.00000000000006" y2="194.97538264736946" stroke="#44403c" stroke-width="1.5"/><line x1="355.00000000000006" y1="194.97538264736946" x2="367.00000000000006" y2="194.97538264736946" stroke="#44403c" stroke-width="1.5"/><text x="361.00000000000006" y="217.03062051296564" font-size="12.5" font-weight="700" fill="#44403c" text-anchor="middle">15.3%</text><rect x="399.00000000000006" y="316.08427910574306" width="60" height="3.9157208942569355" rx="4" fill="#2F6FB0"/><line x1="429.00000000000006" y1="320" x2="429.00000000000006" y2="308.2528373172292" stroke="#44403c" stroke-width="1.5"/><line x1="423.00000000000006" y1="308.2528373172292" x2="435.00000000000006" y2="308.2528373172292" stroke="#44403c" stroke-width="1.5"/><text x="429.00000000000006" y="309.08427910574306" font-size="12.5" font-weight="700" fill="#44403c" text-anchor="middle">0.6%</text><text x="395.00000000000006" y="342" font-size="14" fill="#292524" text-anchor="middle">opus</text><text x="395.00000000000006" y="360" font-size="11" fill="#a8a29e" text-anchor="middle">n=5/condition</text><rect x="550.3333333333334" y="231.0613404504434" width="60" height="88.9386595495566" rx="4" fill="#E8833B"/><line x1="580.3333333333334" y1="288.9062755656041" x2="580.3333333333334" y2="171.9898938170815" stroke="#44403c" stroke-width="1.5"/><line x1="574.3333333333334" y1="171.9898938170815" x2="586.3333333333334" y2="171.9898938170815" stroke="#44403c" stroke-width="1.5"/><text x="580.3333333333334" y="224.0613404504434" font-size="12.5" font-weight="700" fill="#44403c" text-anchor="middle">14.2%</text><rect x="618.3333333333334" y="320" width="60" height="0" rx="4" fill="#2F6FB0"/><text x="648.3333333333334" y="313" font-size="12.5" font-weight="700" fill="#44403c" text-anchor="middle">0.0%</text><text x="614.3333333333334" y="342" font-size="14" fill="#292524" text-anchor="middle">sonnet</text><text x="614.3333333333334" y="360" font-size="11" fill="#a8a29e" text-anchor="middle">n=5/condition</text><text x="34" y="388" font-size="11.5" fill="#a8a29e">bare = model from memory; skill-engine = model reads the skill and runs the engine. Exploratory pilot (dnd-build, 5 characters).</text></svg>
