<svg xmlns="http://www.w3.org/2000/svg" viewBox="0 0 760 512" font-family="-apple-system,Segoe UI,Roboto,Helvetica,Arial,sans-serif" role="img" aria-label="Error taxonomy for the bare condition.">
<rect x="0.5" y="0.5" width="759" height="511" rx="16" fill="#ffffff" stroke="#e7e5e4"/>
<text x="34" y="42" font-size="21" font-weight="700" fill="#292524">Where the bare errors come from</text>
<text x="34" y="66" font-size="13" fill="#78716c">346 error events across 102 responses</text><text x="310" y="108" font-size="13" fill="#44403c" text-anchor="end">invented-entity</text><rect x="320" y="94" width="404" height="21" rx="4" fill="#E8833B"/><text x="732" y="109" font-size="13" font-weight="700" fill="#9a5518">109</text><text x="310" y="138" font-size="13" fill="#44403c" text-anchor="end">lookup-omission</text><rect x="320" y="124" width="214.9724770642202" height="21" rx="4" fill="#E8833B"/><text x="542.9724770642201" y="139" font-size="13" font-weight="700" fill="#9a5518">58</text><text x="310" y="168" font-size="13" fill="#44403c" text-anchor="end">wrong-count</text><rect x="320" y="154" width="177.90825688073394" height="21" rx="4" fill="#E8833B"/><text x="505.9082568807339" y="169" font-size="13" font-weight="700" fill="#9a5518">48</text><text x="310" y="198" font-size="13" fill="#44403c" text-anchor="end">false-positive-check</text><rect x="320" y="184" width="140.8440366972477" height="21" rx="4" fill="#E8833B"/><text x="468.8440366972477" y="199" font-size="13" font-weight="700" fill="#9a5518">38</text><text x="310" y="228" font-size="13" fill="#44403c" text-anchor="end">brief-violation</text><rect x="320" y="214" width="111.19266055045873" height="21" rx="4" fill="#E8833B"/><text x="439.19266055045875" y="229" font-size="13" font-weight="700" fill="#9a5518">30</text><text x="310" y="258" font-size="13" fill="#44403c" text-anchor="end">derived-stat-error</text><rect x="320" y="244" width="63.00917431192661" height="21" rx="4" fill="#E8833B"/><text x="391.0091743119266" y="259" font-size="13" font-weight="700" fill="#9a5518">17</text><text x="310" y="288" font-size="13" fill="#44403c" text-anchor="end">correction-error</text><rect x="320" y="274" width="59.30275229357798" height="21" rx="4" fill="#E8833B"/><text x="387.302752293578" y="289" font-size="13" font-weight="700" fill="#9a5518">16</text><text x="310" y="318" font-size="13" fill="#44403c" text-anchor="end">false-negative-check</text><rect x="320" y="304" width="44.477064220183486" height="21" rx="4" fill="#E8833B"/><text x="372.4770642201835" y="319" font-size="13" font-weight="700" fill="#9a5518">12</text><text x="310" y="348" font-size="13" fill="#44403c" text-anchor="end">procedure-error</text><rect x="320" y="334" width="18.53211009174312" height="21" rx="4" fill="#E8833B"/><text x="346.5321100917431" y="349" font-size="13" font-weight="700" fill="#9a5518">5</text><text x="310" y="378" font-size="13" fill="#44403c" text-anchor="end">illegal-choice</text><rect x="320" y="364" width="18.53211009174312" height="21" rx="4" fill="#E8833B"/><text x="346.5321100917431" y="379" font-size="13" font-weight="700" fill="#9a5518">5</text><text x="310" y="408" font-size="13" fill="#44403c" text-anchor="end">skill-selection-error</text><rect x="320" y="394" width="14.825688073394495" height="21" rx="4" fill="#E8833B"/><text x="342.8256880733945" y="409" font-size="13" font-weight="700" fill="#9a5518">4</text><text x="310" y="438" font-size="13" fill="#44403c" text-anchor="end">invented-rule</text><rect x="320" y="424" width="7.412844036697248" height="21" rx="4" fill="#E8833B"/><text x="335.41284403669727" y="439" font-size="13" font-weight="700" fill="#9a5518">2</text><text x="310" y="468" font-size="13" fill="#44403c" text-anchor="end">lookup-false-positive</text><rect x="320" y="454" width="7.412844036697248" height="21" rx="4" fill="#E8833B"/><text x="335.41284403669727" y="469" font-size="13" font-weight="700" fill="#9a5518">2</text></svg>
