<svg xmlns="http://www.w3.org/2000/svg" viewBox="0 0 760 400" font-family="-apple-system,Segoe UI,Roboto,Helvetica,Arial,sans-serif" role="img" aria-label="Atomic error rate per model and condition, with 95% confidence intervals.">
<rect x="0.5" y="0.5" width="759" height="399" rx="16" fill="#ffffff" stroke="#e7e5e4"/>
<text x="34" y="40" font-size="21" font-weight="700" fill="#292524">D&amp;D 2024 build errors — with vs without the skill</text>
<text x="34" y="64" font-size="13" fill="#78716c">Atomic error rate (% of verifiable units wrong, lower is better) · 95% bootstrap CI · replay · real models</text><rect x="34" y="78" width="12" height="12" rx="3" fill="#E8833B"/><text x="51" y="88" font-size="12" fill="#57534e">bare</text><rect x="92.8" y="78" width="12" height="12" rx="3" fill="#C99A2E"/><text x="109.8" y="88" font-size="12" fill="#57534e">grounding-only</text><rect x="223.60000000000002" y="78" width="12" height="12" rx="3" fill="#2F6FB0"/><text x="240.60000000000002" y="88" font-size="12" fill="#57534e">skill-engine</text><line x1="66" y1="320" x2="724" y2="320" stroke="#ece9e6"/><text x="58" y="324" font-size="12" fill="#a8a29e" text-anchor="end">0%</text><line x1="66" y1="266" x2="724" y2="266" stroke="#ece9e6"/><text x="58" y="270" font-size="12" fill="#a8a29e" text-anchor="end">14%</text><line x1="66" y1="212" x2="724" y2="212" stroke="#ece9e6"/><text x="58" y="216" font-size="12" fill="#a8a29e" text-anchor="end">28%</text><line x1="66" y1="158" x2="724" y2="158" stroke="#ece9e6"/><text x="58" y="162" font-size="12" fill="#a8a29e" text-anchor="end">42%</text><line x1="66" y1="104" x2="724" y2="104" stroke="#ece9e6"/><text x="58" y="108" font-size="12" fill="#a8a29e" text-anchor="end">56%</text><rect x="77.66666666666669" y="231.36191880639356" width="60" height="88.63808119360644" rx="4" fill="#E8833B"/><line x1="107.66666666666669" y1="267.92311024179577" x2="107.66666666666669" y2="188.73494495962507" stroke="#44403c" stroke-width="1.5"/><line x1="101.66666666666669" y1="188.73494495962507" x2="113.66666666666669" y2="188.73494495962507" stroke="#44403c" stroke-width="1.5"/><text x="107.66666666666669" y="224.36191880639356" font-size="12.5" font-weight="700" fill="#44403c" text-anchor="middle">23.1%</text><rect x="145.66666666666669" y="226.5597013306059" width="60" height="93.44029866939411" rx="4" fill="#C99A2E"/><line x1="175.66666666666669" y1="264.80420860695176" x2="175.66666666666669" y2="186.21477327514637" stroke="#44403c" stroke-width="1.5"/><line x1="169.66666666666669" y1="186.21477327514637" x2="181.66666666666669" y2="186.21477327514637" stroke="#44403c" stroke-width="1.5"/><text x="175.66666666666669" y="219.5597013306059" font-size="12.5" font-weight="700" fill="#44403c" text-anchor="middle">24.3%</text><rect x="213.66666666666669" y="184.8940183234348" width="60" height="135.1059816765652" rx="4" fill="#2F6FB0"/><line x1="243.66666666666669" y1="228.83720247204994" x2="243.66666666666669" y2="139.4606007069104" stroke="#44403c" stroke-width="1.5"/><line x1="237.66666666666669" y1="139.4606007069104" x2="249.66666666666669" y2="139.4606007069104" stroke="#44403c" stroke-width="1.5"/><text x="243.66666666666669" y="177.8940183234348" font-size="12.5" font-weight="700" fill="#44403c" text-anchor="middle">35.2%</text><text x="175.66666666666669" y="342" font-size="14" fill="#292524" text-anchor="middle">haiku</text><text x="175.66666666666669" y="360" font-size="11" fill="#a8a29e" text-anchor="middle">n=34/condition</text><rect x="297.00000000000006" y="203.57236202299043" width="60" height="116.42763797700957" rx="4" fill="#E8833B"/><line x1="327.00000000000006" y1="244.29956311034093" x2="327.00000000000006" y2="159.47623518586613" stroke="#44403c" stroke-width="1.5"/><line x1="321.00000000000006" y1="159.47623518586613" x2="333.00000000000006" y2="159.47623518586613" stroke="#44403c" stroke-width="1.5"/><text x="327.00000000000006" y="196.57236202299043" font-size="12.5" font-weight="700" fill="#44403c" text-anchor="middle">30.3%</text><rect x="365.00000000000006" y="216.39291560027556" width="60" height="103.60708439972444" rx="4" fill="#C99A2E"/><line x1="395.00000000000006" y1="250.9411496737811" x2="395.00000000000006" y2="176.09698512846776" stroke="#44403c" stroke-width="1.5"/><line x1="389.00000000000006" y1="176.09698512846776" x2="401.00000000000006" y2="176.09698512846776" stroke="#44403c" stroke-width="1.5"/><text x="395.00000000000006" y="209.39291560027556" font-size="12.5" font-weight="700" fill="#44403c" text-anchor="middle">27.0%</text><rect x="433.00000000000006" y="275.2860323068392" width="60" height="44.71396769316078" rx="4" fill="#2F6FB0"/><line x1="463.00000000000006" y1="297.1440129032762" x2="463.00000000000006" y2="249.25298867675713" stroke="#44403c" stroke-width="1.5"/><line x1="457.00000000000006" y1="249.25298867675713" x2="469.00000000000006" y2="249.25298867675713" stroke="#44403c" stroke-width="1.5"/><text x="463.00000000000006" y="268.2860323068392" font-size="12.5" font-weight="700" fill="#44403c" text-anchor="middle">11.6%</text><text x="395.00000000000006" y="342" font-size="14" fill="#292524" text-anchor="middle">opus</text><text x="395.00000000000006" y="360" font-size="11" fill="#a8a29e" text-anchor="middle">n=34/condition</text><rect x="516.3333333333334" y="181.5951041522754" width="60" height="138.4048958477246" rx="4" fill="#E8833B"/><line x1="546.3333333333334" y1="229.98190024921118" x2="546.3333333333334" y2="132.17391304347825" stroke="#44403c" stroke-width="1.5"/><line x1="540.3333333333334" y1="132.17391304347825" x2="552.3333333333334" y2="132.17391304347825" stroke="#44403c" stroke-width="1.5"/><text x="546.3333333333334" y="174.5951041522754" font-size="12.5" font-weight="700" fill="#44403c" text-anchor="middle">36.0%</text><rect x="584.3333333333334" y="197.32807471127006" width="60" height="122.67192528872994" rx="4" fill="#C99A2E"/><line x1="614.3333333333334" y1="238.39725911979974" x2="614.3333333333334" y2="149.04270553006802" stroke="#44403c" stroke-width="1.5"/><line x1="608.3333333333334" y1="149.04270553006802" x2="620.3333333333334" y2="149.04270553006802" stroke="#44403c" stroke-width="1.5"/><text x="614.3333333333334" y="190.32807471127006" font-size="12.5" font-weight="700" fill="#44403c" text-anchor="middle">31.9%</text><rect x="652.3333333333334" y="220.45213355660582" width="60" height="99.54786644339418" rx="4" fill="#2F6FB0"/><line x1="682.3333333333334" y1="261.67458569387645" x2="682.3333333333334" y2="175.66377828745937" stroke="#44403c" stroke-width="1.5"/><line x1="676.3333333333334" y1="175.66377828745937" x2="688.3333333333334" y2="175.66377828745937" stroke="#44403c" stroke-width="1.5"/><text x="682.3333333333334" y="213.45213355660582" font-size="12.5" font-weight="700" fill="#44403c" text-anchor="middle">25.9%</text><text x="614.3333333333334" y="342" font-size="14" fill="#292524" text-anchor="middle">sonnet</text><text x="614.3333333333334" y="360" font-size="11" fill="#a8a29e" text-anchor="middle">n=34/condition</text><text x="34" y="388" font-size="11.5" fill="#a8a29e">bare = model from memory; skill-engine = model reads the skill and runs the engine. Exploratory pilot (dnd-build, 5 characters).</text></svg>
